<mxfile host="app.diagrams.net" agent="Mozilla/5.0 (Windows NT 10.0; Win64; x64) AppleWebKit/537.36 (KHTML, like Gecko) Chrome/135.0.0.0 Safari/537.36" version="26.2.12">
  <diagram name="Page-1" id="thoeQhLaUIlAeaY37Q_6">
    <mxGraphModel dx="1712" dy="518" grid="1" gridSize="10" guides="1" tooltips="1" connect="1" arrows="1" fold="1" page="1" pageScale="1" pageWidth="827" pageHeight="1169" math="0" shadow="0">
      <root>
        <mxCell id="0" />
        <mxCell id="1" parent="0" />
        <mxCell id="1VlmSRWmxTNn3Guo2VhC-105" value="" style="rounded=0;whiteSpace=wrap;html=1;" vertex="1" parent="1">
          <mxGeometry x="150" y="320" width="340" height="110" as="geometry" />
        </mxCell>
        <mxCell id="1VlmSRWmxTNn3Guo2VhC-66" value="统计表" style="shape=table;startSize=30;container=1;collapsible=0;childLayout=tableLayout;strokeColor=default;fontSize=16;" vertex="1" parent="1">
          <mxGeometry x="500" y="50" width="120" height="97" as="geometry" />
        </mxCell>
        <mxCell id="1VlmSRWmxTNn3Guo2VhC-67" value="" style="shape=tableRow;horizontal=0;startSize=0;swimlaneHead=0;swimlaneBody=0;strokeColor=inherit;top=0;left=0;bottom=0;right=0;collapsible=0;dropTarget=0;fillColor=none;points=[[0,0.5],[1,0.5]];portConstraint=eastwest;fontSize=16;" vertex="1" parent="1VlmSRWmxTNn3Guo2VhC-66">
          <mxGeometry y="30" width="120" height="23" as="geometry" />
        </mxCell>
        <mxCell id="1VlmSRWmxTNn3Guo2VhC-68" value="" style="shape=partialRectangle;html=1;whiteSpace=wrap;connectable=0;strokeColor=inherit;overflow=hidden;fillColor=none;top=0;left=0;bottom=0;right=0;pointerEvents=1;fontSize=16;" vertex="1" parent="1VlmSRWmxTNn3Guo2VhC-67">
          <mxGeometry width="40" height="23" as="geometry">
            <mxRectangle width="40" height="23" as="alternateBounds" />
          </mxGeometry>
        </mxCell>
        <mxCell id="1VlmSRWmxTNn3Guo2VhC-69" value="" style="shape=partialRectangle;html=1;whiteSpace=wrap;connectable=0;strokeColor=inherit;overflow=hidden;fillColor=none;top=0;left=0;bottom=0;right=0;pointerEvents=1;fontSize=16;" vertex="1" parent="1VlmSRWmxTNn3Guo2VhC-67">
          <mxGeometry x="40" width="40" height="23" as="geometry">
            <mxRectangle width="40" height="23" as="alternateBounds" />
          </mxGeometry>
        </mxCell>
        <mxCell id="1VlmSRWmxTNn3Guo2VhC-70" value="" style="shape=partialRectangle;html=1;whiteSpace=wrap;connectable=0;strokeColor=inherit;overflow=hidden;fillColor=none;top=0;left=0;bottom=0;right=0;pointerEvents=1;fontSize=16;" vertex="1" parent="1VlmSRWmxTNn3Guo2VhC-67">
          <mxGeometry x="80" width="40" height="23" as="geometry">
            <mxRectangle width="40" height="23" as="alternateBounds" />
          </mxGeometry>
        </mxCell>
        <mxCell id="1VlmSRWmxTNn3Guo2VhC-71" value="" style="shape=tableRow;horizontal=0;startSize=0;swimlaneHead=0;swimlaneBody=0;strokeColor=inherit;top=0;left=0;bottom=0;right=0;collapsible=0;dropTarget=0;fillColor=none;points=[[0,0.5],[1,0.5]];portConstraint=eastwest;fontSize=16;" vertex="1" parent="1VlmSRWmxTNn3Guo2VhC-66">
          <mxGeometry y="53" width="120" height="24" as="geometry" />
        </mxCell>
        <mxCell id="1VlmSRWmxTNn3Guo2VhC-72" value="" style="shape=partialRectangle;html=1;whiteSpace=wrap;connectable=0;strokeColor=inherit;overflow=hidden;fillColor=none;top=0;left=0;bottom=0;right=0;pointerEvents=1;fontSize=16;" vertex="1" parent="1VlmSRWmxTNn3Guo2VhC-71">
          <mxGeometry width="40" height="24" as="geometry">
            <mxRectangle width="40" height="24" as="alternateBounds" />
          </mxGeometry>
        </mxCell>
        <mxCell id="1VlmSRWmxTNn3Guo2VhC-73" value="" style="shape=partialRectangle;html=1;whiteSpace=wrap;connectable=0;strokeColor=inherit;overflow=hidden;fillColor=none;top=0;left=0;bottom=0;right=0;pointerEvents=1;fontSize=16;" vertex="1" parent="1VlmSRWmxTNn3Guo2VhC-71">
          <mxGeometry x="40" width="40" height="24" as="geometry">
            <mxRectangle width="40" height="24" as="alternateBounds" />
          </mxGeometry>
        </mxCell>
        <mxCell id="1VlmSRWmxTNn3Guo2VhC-74" value="" style="shape=partialRectangle;html=1;whiteSpace=wrap;connectable=0;strokeColor=inherit;overflow=hidden;fillColor=none;top=0;left=0;bottom=0;right=0;pointerEvents=1;fontSize=16;" vertex="1" parent="1VlmSRWmxTNn3Guo2VhC-71">
          <mxGeometry x="80" width="40" height="24" as="geometry">
            <mxRectangle width="40" height="24" as="alternateBounds" />
          </mxGeometry>
        </mxCell>
        <mxCell id="1VlmSRWmxTNn3Guo2VhC-75" value="" style="shape=tableRow;horizontal=0;startSize=0;swimlaneHead=0;swimlaneBody=0;strokeColor=inherit;top=0;left=0;bottom=0;right=0;collapsible=0;dropTarget=0;fillColor=none;points=[[0,0.5],[1,0.5]];portConstraint=eastwest;fontSize=16;" vertex="1" parent="1VlmSRWmxTNn3Guo2VhC-66">
          <mxGeometry y="77" width="120" height="20" as="geometry" />
        </mxCell>
        <mxCell id="1VlmSRWmxTNn3Guo2VhC-76" value="" style="shape=partialRectangle;html=1;whiteSpace=wrap;connectable=0;strokeColor=inherit;overflow=hidden;fillColor=none;top=0;left=0;bottom=0;right=0;pointerEvents=1;fontSize=16;" vertex="1" parent="1VlmSRWmxTNn3Guo2VhC-75">
          <mxGeometry width="40" height="20" as="geometry">
            <mxRectangle width="40" height="20" as="alternateBounds" />
          </mxGeometry>
        </mxCell>
        <mxCell id="1VlmSRWmxTNn3Guo2VhC-77" value="" style="shape=partialRectangle;html=1;whiteSpace=wrap;connectable=0;strokeColor=inherit;overflow=hidden;fillColor=none;top=0;left=0;bottom=0;right=0;pointerEvents=1;fontSize=16;" vertex="1" parent="1VlmSRWmxTNn3Guo2VhC-75">
          <mxGeometry x="40" width="40" height="20" as="geometry">
            <mxRectangle width="40" height="20" as="alternateBounds" />
          </mxGeometry>
        </mxCell>
        <mxCell id="1VlmSRWmxTNn3Guo2VhC-78" value="" style="shape=partialRectangle;html=1;whiteSpace=wrap;connectable=0;strokeColor=inherit;overflow=hidden;fillColor=none;top=0;left=0;bottom=0;right=0;pointerEvents=1;fontSize=16;" vertex="1" parent="1VlmSRWmxTNn3Guo2VhC-75">
          <mxGeometry x="80" width="40" height="20" as="geometry">
            <mxRectangle width="40" height="20" as="alternateBounds" />
          </mxGeometry>
        </mxCell>
        <mxCell id="1VlmSRWmxTNn3Guo2VhC-130" value="" style="shape=singleArrow;whiteSpace=wrap;html=1;arrowWidth=0.4;arrowSize=0.4;" vertex="1" parent="1VlmSRWmxTNn3Guo2VhC-75">
          <mxGeometry x="120" width="NaN" height="20" as="geometry">
            <mxRectangle width="NaN" height="20" as="alternateBounds" />
          </mxGeometry>
        </mxCell>
        <mxCell id="1VlmSRWmxTNn3Guo2VhC-79" value="Table" style="shape=table;startSize=30;container=1;collapsible=0;childLayout=tableLayout;strokeColor=default;fontSize=16;" vertex="1" parent="1">
          <mxGeometry x="500" y="303" width="120" height="97" as="geometry" />
        </mxCell>
        <mxCell id="1VlmSRWmxTNn3Guo2VhC-80" value="" style="shape=tableRow;horizontal=0;startSize=0;swimlaneHead=0;swimlaneBody=0;strokeColor=inherit;top=0;left=0;bottom=0;right=0;collapsible=0;dropTarget=0;fillColor=none;points=[[0,0.5],[1,0.5]];portConstraint=eastwest;fontSize=16;" vertex="1" parent="1VlmSRWmxTNn3Guo2VhC-79">
          <mxGeometry y="30" width="120" height="23" as="geometry" />
        </mxCell>
        <mxCell id="1VlmSRWmxTNn3Guo2VhC-81" value="" style="shape=partialRectangle;html=1;whiteSpace=wrap;connectable=0;strokeColor=inherit;overflow=hidden;fillColor=none;top=0;left=0;bottom=0;right=0;pointerEvents=1;fontSize=16;" vertex="1" parent="1VlmSRWmxTNn3Guo2VhC-80">
          <mxGeometry width="40" height="23" as="geometry">
            <mxRectangle width="40" height="23" as="alternateBounds" />
          </mxGeometry>
        </mxCell>
        <mxCell id="1VlmSRWmxTNn3Guo2VhC-82" value="" style="shape=partialRectangle;html=1;whiteSpace=wrap;connectable=0;strokeColor=inherit;overflow=hidden;fillColor=none;top=0;left=0;bottom=0;right=0;pointerEvents=1;fontSize=16;" vertex="1" parent="1VlmSRWmxTNn3Guo2VhC-80">
          <mxGeometry x="40" width="40" height="23" as="geometry">
            <mxRectangle width="40" height="23" as="alternateBounds" />
          </mxGeometry>
        </mxCell>
        <mxCell id="1VlmSRWmxTNn3Guo2VhC-83" value="" style="shape=partialRectangle;html=1;whiteSpace=wrap;connectable=0;strokeColor=inherit;overflow=hidden;fillColor=none;top=0;left=0;bottom=0;right=0;pointerEvents=1;fontSize=16;" vertex="1" parent="1VlmSRWmxTNn3Guo2VhC-80">
          <mxGeometry x="80" width="40" height="23" as="geometry">
            <mxRectangle width="40" height="23" as="alternateBounds" />
          </mxGeometry>
        </mxCell>
        <mxCell id="1VlmSRWmxTNn3Guo2VhC-84" value="" style="shape=tableRow;horizontal=0;startSize=0;swimlaneHead=0;swimlaneBody=0;strokeColor=inherit;top=0;left=0;bottom=0;right=0;collapsible=0;dropTarget=0;fillColor=none;points=[[0,0.5],[1,0.5]];portConstraint=eastwest;fontSize=16;" vertex="1" parent="1VlmSRWmxTNn3Guo2VhC-79">
          <mxGeometry y="53" width="120" height="24" as="geometry" />
        </mxCell>
        <mxCell id="1VlmSRWmxTNn3Guo2VhC-85" value="" style="shape=partialRectangle;html=1;whiteSpace=wrap;connectable=0;strokeColor=inherit;overflow=hidden;fillColor=none;top=0;left=0;bottom=0;right=0;pointerEvents=1;fontSize=16;" vertex="1" parent="1VlmSRWmxTNn3Guo2VhC-84">
          <mxGeometry width="40" height="24" as="geometry">
            <mxRectangle width="40" height="24" as="alternateBounds" />
          </mxGeometry>
        </mxCell>
        <mxCell id="1VlmSRWmxTNn3Guo2VhC-86" value="" style="shape=partialRectangle;html=1;whiteSpace=wrap;connectable=0;strokeColor=inherit;overflow=hidden;fillColor=none;top=0;left=0;bottom=0;right=0;pointerEvents=1;fontSize=16;" vertex="1" parent="1VlmSRWmxTNn3Guo2VhC-84">
          <mxGeometry x="40" width="40" height="24" as="geometry">
            <mxRectangle width="40" height="24" as="alternateBounds" />
          </mxGeometry>
        </mxCell>
        <mxCell id="1VlmSRWmxTNn3Guo2VhC-87" value="" style="shape=partialRectangle;html=1;whiteSpace=wrap;connectable=0;strokeColor=inherit;overflow=hidden;fillColor=none;top=0;left=0;bottom=0;right=0;pointerEvents=1;fontSize=16;" vertex="1" parent="1VlmSRWmxTNn3Guo2VhC-84">
          <mxGeometry x="80" width="40" height="24" as="geometry">
            <mxRectangle width="40" height="24" as="alternateBounds" />
          </mxGeometry>
        </mxCell>
        <mxCell id="1VlmSRWmxTNn3Guo2VhC-88" value="" style="shape=tableRow;horizontal=0;startSize=0;swimlaneHead=0;swimlaneBody=0;strokeColor=inherit;top=0;left=0;bottom=0;right=0;collapsible=0;dropTarget=0;fillColor=none;points=[[0,0.5],[1,0.5]];portConstraint=eastwest;fontSize=16;" vertex="1" parent="1VlmSRWmxTNn3Guo2VhC-79">
          <mxGeometry y="77" width="120" height="20" as="geometry" />
        </mxCell>
        <mxCell id="1VlmSRWmxTNn3Guo2VhC-89" value="" style="shape=partialRectangle;html=1;whiteSpace=wrap;connectable=0;strokeColor=inherit;overflow=hidden;fillColor=none;top=0;left=0;bottom=0;right=0;pointerEvents=1;fontSize=16;" vertex="1" parent="1VlmSRWmxTNn3Guo2VhC-88">
          <mxGeometry width="40" height="20" as="geometry">
            <mxRectangle width="40" height="20" as="alternateBounds" />
          </mxGeometry>
        </mxCell>
        <mxCell id="1VlmSRWmxTNn3Guo2VhC-90" value="" style="shape=partialRectangle;html=1;whiteSpace=wrap;connectable=0;strokeColor=inherit;overflow=hidden;fillColor=none;top=0;left=0;bottom=0;right=0;pointerEvents=1;fontSize=16;" vertex="1" parent="1VlmSRWmxTNn3Guo2VhC-88">
          <mxGeometry x="40" width="40" height="20" as="geometry">
            <mxRectangle width="40" height="20" as="alternateBounds" />
          </mxGeometry>
        </mxCell>
        <mxCell id="1VlmSRWmxTNn3Guo2VhC-91" value="" style="shape=partialRectangle;html=1;whiteSpace=wrap;connectable=0;strokeColor=inherit;overflow=hidden;fillColor=none;top=0;left=0;bottom=0;right=0;pointerEvents=1;fontSize=16;" vertex="1" parent="1VlmSRWmxTNn3Guo2VhC-88">
          <mxGeometry x="80" width="40" height="20" as="geometry">
            <mxRectangle width="40" height="20" as="alternateBounds" />
          </mxGeometry>
        </mxCell>
        <mxCell id="1VlmSRWmxTNn3Guo2VhC-92" value="Table" style="shape=table;startSize=30;container=1;collapsible=0;childLayout=tableLayout;strokeColor=default;fontSize=16;" vertex="1" parent="1">
          <mxGeometry x="500" y="180" width="120" height="97" as="geometry" />
        </mxCell>
        <mxCell id="1VlmSRWmxTNn3Guo2VhC-93" value="" style="shape=tableRow;horizontal=0;startSize=0;swimlaneHead=0;swimlaneBody=0;strokeColor=inherit;top=0;left=0;bottom=0;right=0;collapsible=0;dropTarget=0;fillColor=none;points=[[0,0.5],[1,0.5]];portConstraint=eastwest;fontSize=16;" vertex="1" parent="1VlmSRWmxTNn3Guo2VhC-92">
          <mxGeometry y="30" width="120" height="23" as="geometry" />
        </mxCell>
        <mxCell id="1VlmSRWmxTNn3Guo2VhC-94" value="" style="shape=partialRectangle;html=1;whiteSpace=wrap;connectable=0;strokeColor=inherit;overflow=hidden;fillColor=none;top=0;left=0;bottom=0;right=0;pointerEvents=1;fontSize=16;" vertex="1" parent="1VlmSRWmxTNn3Guo2VhC-93">
          <mxGeometry width="40" height="23" as="geometry">
            <mxRectangle width="40" height="23" as="alternateBounds" />
          </mxGeometry>
        </mxCell>
        <mxCell id="1VlmSRWmxTNn3Guo2VhC-95" value="" style="shape=partialRectangle;html=1;whiteSpace=wrap;connectable=0;strokeColor=inherit;overflow=hidden;fillColor=none;top=0;left=0;bottom=0;right=0;pointerEvents=1;fontSize=16;" vertex="1" parent="1VlmSRWmxTNn3Guo2VhC-93">
          <mxGeometry x="40" width="40" height="23" as="geometry">
            <mxRectangle width="40" height="23" as="alternateBounds" />
          </mxGeometry>
        </mxCell>
        <mxCell id="1VlmSRWmxTNn3Guo2VhC-96" value="" style="shape=partialRectangle;html=1;whiteSpace=wrap;connectable=0;strokeColor=inherit;overflow=hidden;fillColor=none;top=0;left=0;bottom=0;right=0;pointerEvents=1;fontSize=16;" vertex="1" parent="1VlmSRWmxTNn3Guo2VhC-93">
          <mxGeometry x="80" width="40" height="23" as="geometry">
            <mxRectangle width="40" height="23" as="alternateBounds" />
          </mxGeometry>
        </mxCell>
        <mxCell id="1VlmSRWmxTNn3Guo2VhC-97" value="" style="shape=tableRow;horizontal=0;startSize=0;swimlaneHead=0;swimlaneBody=0;strokeColor=inherit;top=0;left=0;bottom=0;right=0;collapsible=0;dropTarget=0;fillColor=none;points=[[0,0.5],[1,0.5]];portConstraint=eastwest;fontSize=16;" vertex="1" parent="1VlmSRWmxTNn3Guo2VhC-92">
          <mxGeometry y="53" width="120" height="24" as="geometry" />
        </mxCell>
        <mxCell id="1VlmSRWmxTNn3Guo2VhC-98" value="" style="shape=partialRectangle;html=1;whiteSpace=wrap;connectable=0;strokeColor=inherit;overflow=hidden;fillColor=none;top=0;left=0;bottom=0;right=0;pointerEvents=1;fontSize=16;" vertex="1" parent="1VlmSRWmxTNn3Guo2VhC-97">
          <mxGeometry width="40" height="24" as="geometry">
            <mxRectangle width="40" height="24" as="alternateBounds" />
          </mxGeometry>
        </mxCell>
        <mxCell id="1VlmSRWmxTNn3Guo2VhC-99" value="" style="shape=partialRectangle;html=1;whiteSpace=wrap;connectable=0;strokeColor=inherit;overflow=hidden;fillColor=none;top=0;left=0;bottom=0;right=0;pointerEvents=1;fontSize=16;" vertex="1" parent="1VlmSRWmxTNn3Guo2VhC-97">
          <mxGeometry x="40" width="40" height="24" as="geometry">
            <mxRectangle width="40" height="24" as="alternateBounds" />
          </mxGeometry>
        </mxCell>
        <mxCell id="1VlmSRWmxTNn3Guo2VhC-100" value="" style="shape=partialRectangle;html=1;whiteSpace=wrap;connectable=0;strokeColor=inherit;overflow=hidden;fillColor=none;top=0;left=0;bottom=0;right=0;pointerEvents=1;fontSize=16;" vertex="1" parent="1VlmSRWmxTNn3Guo2VhC-97">
          <mxGeometry x="80" width="40" height="24" as="geometry">
            <mxRectangle width="40" height="24" as="alternateBounds" />
          </mxGeometry>
        </mxCell>
        <mxCell id="1VlmSRWmxTNn3Guo2VhC-101" value="" style="shape=tableRow;horizontal=0;startSize=0;swimlaneHead=0;swimlaneBody=0;strokeColor=inherit;top=0;left=0;bottom=0;right=0;collapsible=0;dropTarget=0;fillColor=none;points=[[0,0.5],[1,0.5]];portConstraint=eastwest;fontSize=16;" vertex="1" parent="1VlmSRWmxTNn3Guo2VhC-92">
          <mxGeometry y="77" width="120" height="20" as="geometry" />
        </mxCell>
        <mxCell id="1VlmSRWmxTNn3Guo2VhC-102" value="" style="shape=partialRectangle;html=1;whiteSpace=wrap;connectable=0;strokeColor=inherit;overflow=hidden;fillColor=none;top=0;left=0;bottom=0;right=0;pointerEvents=1;fontSize=16;" vertex="1" parent="1VlmSRWmxTNn3Guo2VhC-101">
          <mxGeometry width="40" height="20" as="geometry">
            <mxRectangle width="40" height="20" as="alternateBounds" />
          </mxGeometry>
        </mxCell>
        <mxCell id="1VlmSRWmxTNn3Guo2VhC-103" value="" style="shape=partialRectangle;html=1;whiteSpace=wrap;connectable=0;strokeColor=inherit;overflow=hidden;fillColor=none;top=0;left=0;bottom=0;right=0;pointerEvents=1;fontSize=16;" vertex="1" parent="1VlmSRWmxTNn3Guo2VhC-101">
          <mxGeometry x="40" width="40" height="20" as="geometry">
            <mxRectangle width="40" height="20" as="alternateBounds" />
          </mxGeometry>
        </mxCell>
        <mxCell id="1VlmSRWmxTNn3Guo2VhC-104" value="" style="shape=partialRectangle;html=1;whiteSpace=wrap;connectable=0;strokeColor=inherit;overflow=hidden;fillColor=none;top=0;left=0;bottom=0;right=0;pointerEvents=1;fontSize=16;" vertex="1" parent="1VlmSRWmxTNn3Guo2VhC-101">
          <mxGeometry x="80" width="40" height="20" as="geometry">
            <mxRectangle width="40" height="20" as="alternateBounds" />
          </mxGeometry>
        </mxCell>
        <mxCell id="1VlmSRWmxTNn3Guo2VhC-106" value="" style="rounded=0;whiteSpace=wrap;html=1;" vertex="1" parent="1">
          <mxGeometry x="150" y="50" width="340" height="240" as="geometry" />
        </mxCell>
        <mxCell id="1VlmSRWmxTNn3Guo2VhC-113" value="" style="shape=crossbar;whiteSpace=wrap;html=1;rounded=1;" vertex="1" parent="1">
          <mxGeometry x="150" y="218.5" width="340" height="20" as="geometry" />
        </mxCell>
        <mxCell id="1VlmSRWmxTNn3Guo2VhC-115" value="" style="endArrow=none;html=1;rounded=0;exitX=0;exitY=0.5;exitDx=0;exitDy=0;exitPerimeter=0;strokeColor=#FF3333;shadow=1;" edge="1" parent="1" source="1VlmSRWmxTNn3Guo2VhC-113" target="1VlmSRWmxTNn3Guo2VhC-106">
          <mxGeometry width="50" height="50" relative="1" as="geometry">
            <mxPoint x="360" y="200" as="sourcePoint" />
            <mxPoint x="410" y="150" as="targetPoint" />
            <Array as="points">
              <mxPoint x="180" y="240" />
              <mxPoint x="210" y="220" />
              <mxPoint x="250" y="270" />
              <mxPoint x="270" y="190" />
              <mxPoint x="290" y="170" />
              <mxPoint x="340" y="180" />
              <mxPoint x="360" y="170" />
              <mxPoint x="380" y="150" />
              <mxPoint x="390" y="150" />
              <mxPoint x="410" y="130" />
              <mxPoint x="440" y="140" />
              <mxPoint x="460" y="120" />
            </Array>
          </mxGeometry>
        </mxCell>
        <mxCell id="1VlmSRWmxTNn3Guo2VhC-116" value="" style="endArrow=none;html=1;rounded=0;strokeColor=#E6D0DE;" edge="1" parent="1">
          <mxGeometry width="50" height="50" relative="1" as="geometry">
            <mxPoint x="150" y="228" as="sourcePoint" />
            <mxPoint x="490" y="120" as="targetPoint" />
            <Array as="points">
              <mxPoint x="220" y="200" />
              <mxPoint x="250" y="200" />
              <mxPoint x="270" y="180" />
              <mxPoint x="300" y="180" />
              <mxPoint x="330" y="170" />
              <mxPoint x="350" y="190" />
              <mxPoint x="370" y="150" />
              <mxPoint x="390" y="160" />
              <mxPoint x="400" y="160" />
              <mxPoint x="410" y="130" />
              <mxPoint x="420" y="140" />
              <mxPoint x="450" y="150" />
              <mxPoint x="470" y="130" />
            </Array>
          </mxGeometry>
        </mxCell>
        <mxCell id="1VlmSRWmxTNn3Guo2VhC-117" value="" style="endArrow=none;html=1;rounded=0;strokeColor=#D5E8D4;entryX=0.996;entryY=0.481;entryDx=0;entryDy=0;entryPerimeter=0;" edge="1" parent="1" target="1VlmSRWmxTNn3Guo2VhC-106">
          <mxGeometry width="50" height="50" relative="1" as="geometry">
            <mxPoint x="150" y="230" as="sourcePoint" />
            <mxPoint x="510" y="129" as="targetPoint" />
            <Array as="points">
              <mxPoint x="200" y="220" />
              <mxPoint x="240" y="250" />
              <mxPoint x="260" y="210" />
              <mxPoint x="310" y="190" />
              <mxPoint x="360" y="200" />
              <mxPoint x="380" y="190" />
              <mxPoint x="400" y="170" />
              <mxPoint x="410" y="170" />
              <mxPoint x="430" y="150" />
              <mxPoint x="460" y="160" />
              <mxPoint x="480" y="140" />
            </Array>
          </mxGeometry>
        </mxCell>
        <mxCell id="1VlmSRWmxTNn3Guo2VhC-131" value="" style="edgeStyle=orthogonalEdgeStyle;rounded=0;orthogonalLoop=1;jettySize=auto;html=1;" edge="1" parent="1" source="1VlmSRWmxTNn3Guo2VhC-129" target="1VlmSRWmxTNn3Guo2VhC-130">
          <mxGeometry relative="1" as="geometry" />
        </mxCell>
        <mxCell id="1VlmSRWmxTNn3Guo2VhC-129" value="&lt;h1 style=&quot;margin-top: 0px;&quot;&gt;&lt;font style=&quot;font-size: 13px;&quot;&gt;统计表&lt;/font&gt;&lt;/h1&gt;&lt;div&gt;&lt;font style=&quot;font-size: 13px;&quot;&gt;列出测算组合的起止日期，岂止金额，负债&lt;/font&gt;&lt;/div&gt;" style="text;html=1;whiteSpace=wrap;overflow=hidden;rounded=0;" vertex="1" parent="1">
          <mxGeometry x="660" y="40" width="180" height="120" as="geometry" />
        </mxCell>
        <mxCell id="1VlmSRWmxTNn3Guo2VhC-133" value="&lt;h1 style=&quot;margin-top: 0px;&quot;&gt;&lt;font style=&quot;font-size: 12px;&quot;&gt;组合分析表&lt;/font&gt;&lt;/h1&gt;&lt;div&gt;&lt;font&gt;列出组合与竞品资产的各项系数对比（回报率，回撤，波动率，夏普比率，Beta）等&lt;/font&gt;&lt;/div&gt;" style="text;html=1;whiteSpace=wrap;overflow=hidden;rounded=0;" vertex="1" parent="1">
          <mxGeometry x="660" y="160" width="180" height="120" as="geometry" />
        </mxCell>
        <mxCell id="1VlmSRWmxTNn3Guo2VhC-134" value="&lt;h1 style=&quot;margin-top: 0px;&quot;&gt;&lt;font style=&quot;font-size: 11px;&quot;&gt;组合结构表&lt;/font&gt;&lt;/h1&gt;&lt;div&gt;&lt;font style=&quot;font-size: 11px;&quot;&gt;列出组合的构成，每个组成资产的比重，回报率&lt;/font&gt;&lt;/div&gt;" style="text;html=1;whiteSpace=wrap;overflow=hidden;rounded=0;" vertex="1" parent="1">
          <mxGeometry x="660" y="290" width="180" height="120" as="geometry" />
        </mxCell>
        <mxCell id="1VlmSRWmxTNn3Guo2VhC-135" value="&lt;h1 style=&quot;margin-top: 0px;&quot;&gt;&lt;font style=&quot;font-size: 11px;&quot;&gt;分时投资回报率分析&lt;/font&gt;&lt;/h1&gt;&lt;div&gt;&lt;font style=&quot;font-size: 11px;&quot;&gt;按周，月，进行组合投资汇报的排列&lt;/font&gt;&lt;/div&gt;" style="text;html=1;whiteSpace=wrap;overflow=hidden;rounded=0;" vertex="1" parent="1">
          <mxGeometry x="120" y="440" width="180" height="120" as="geometry" />
        </mxCell>
        <mxCell id="1VlmSRWmxTNn3Guo2VhC-141" value="&lt;h1 style=&quot;margin-top: 0px;&quot;&gt;&lt;span style=&quot;font-size: 13px;&quot;&gt;累计收益表&lt;/span&gt;&lt;/h1&gt;&lt;div&gt;&lt;font style=&quot;font-size: 13px;&quot;&gt;列出整体组合收益，与单独持有组合中的每个资产做对比（也可以与竞品做对比）&lt;/font&gt;&lt;/div&gt;" style="text;html=1;whiteSpace=wrap;overflow=hidden;rounded=0;" vertex="1" parent="1">
          <mxGeometry x="-40" y="50" width="180" height="120" as="geometry" />
        </mxCell>
        <mxCell id="1VlmSRWmxTNn3Guo2VhC-142" value="" style="shape=crossbar;whiteSpace=wrap;html=1;rounded=1;shadow=0;" vertex="1" parent="1">
          <mxGeometry x="150" y="370" width="340" height="20" as="geometry" />
        </mxCell>
        <mxCell id="1VlmSRWmxTNn3Guo2VhC-120" value="" style="rounded=0;whiteSpace=wrap;html=1;" vertex="1" parent="1">
          <mxGeometry x="160" y="340" width="20" height="40" as="geometry" />
        </mxCell>
        <mxCell id="1VlmSRWmxTNn3Guo2VhC-121" value="" style="rounded=0;whiteSpace=wrap;html=1;" vertex="1" parent="1">
          <mxGeometry x="200" y="330" width="20" height="50" as="geometry" />
        </mxCell>
        <mxCell id="1VlmSRWmxTNn3Guo2VhC-122" value="" style="rounded=0;whiteSpace=wrap;html=1;" vertex="1" parent="1">
          <mxGeometry x="240" y="380" width="20" height="30" as="geometry" />
        </mxCell>
        <mxCell id="1VlmSRWmxTNn3Guo2VhC-123" value="" style="rounded=0;whiteSpace=wrap;html=1;" vertex="1" parent="1">
          <mxGeometry x="280" y="330" width="20" height="50" as="geometry" />
        </mxCell>
        <mxCell id="1VlmSRWmxTNn3Guo2VhC-124" value="" style="rounded=0;whiteSpace=wrap;html=1;" vertex="1" parent="1">
          <mxGeometry x="320" y="380" width="20" height="30" as="geometry" />
        </mxCell>
        <mxCell id="1VlmSRWmxTNn3Guo2VhC-125" value="" style="rounded=0;whiteSpace=wrap;html=1;" vertex="1" parent="1">
          <mxGeometry x="360" y="330" width="20" height="50" as="geometry" />
        </mxCell>
        <mxCell id="1VlmSRWmxTNn3Guo2VhC-126" value="" style="rounded=0;whiteSpace=wrap;html=1;" vertex="1" parent="1">
          <mxGeometry x="404" y="330" width="20" height="50" as="geometry" />
        </mxCell>
        <mxCell id="1VlmSRWmxTNn3Guo2VhC-127" value="" style="rounded=0;whiteSpace=wrap;html=1;" vertex="1" parent="1">
          <mxGeometry x="440" y="380" width="20" height="20" as="geometry" />
        </mxCell>
      </root>
    </mxGraphModel>
  </diagram>
</mxfile>
